# xmcd CD database file
#
# Track frame offsets:
#	150
#	7177
#	29203
#	46697
#	83991
#	104129
#	129434
#	151000
#	169986
#	203951
#	225198
#	252043
#
# Disc length: 3582 seconds
#
# Revision: 1
# Processed by: cddbd v1.5.2PL0 Copyright (c) Steve Scherf et al.
# Submitted via: CDex 1.51
#
DISCID=970dfc0c
DTITLE=Lee Oskar - The Best of Lee Oskar CD 2
DYEAR=2006
DGENRE=Blues
TTITLE0=Blues Interlude
TTITLE1=Song For Ray
TTITLE2=Straighten Out That Line
TTITLE3=Ocean Blues
TTITLE4=Lee's Blues
TTITLE5=Song For Peace
TTITLE6=Sunset
TTITLE7=La Playa
TTITLE8=Reflections
TTITLE9=High Horse
TTITLE10=Those Sunny Days
TTITLE11=See You Later
EXTD=YEAR: 2006
EXTT0=
EXTT1=
EXTT2=
EXTT3=
EXTT4=
EXTT5=
EXTT6=
EXTT7=
EXTT8=
EXTT9=
EXTT10=
EXTT11=
PLAYORDER=
